<?xml version="1.0" standalone="no"?>
<!DOCTYPE svg PUBLIC "-//W3C//DTD SVG 20010904//EN"
 "http://www.w3.org/TR/2001/REC-SVG-20010904/DTD/svg10.dtd">
<svg version="1.0" xmlns="http://www.w3.org/2000/svg"
 width="450.000000pt" height="450.000000pt" viewBox="0 0 450.000000 450.000000"
 preserveAspectRatio="xMidYMid meet">
<metadata>
Created by potrace 1.14, written by Peter Selinger 2001-2017
</metadata>
<g transform="translate(0.000000,450.000000) scale(0.100000,-0.100000)"
fill="#000000" stroke="none">
<path d="M832 3255 c-40 -18 -67 -47 -91 -100 -17 -37 -61 -85 -79 -85 -12 0
-104 -92 -136 -134 -68 -91 -126 -239 -141 -356 -2 -19 -7 -46 -10 -60 -10
-42 -13 -293 -3 -360 4 -35 10 -80 13 -99 5 -38 10 -68 22 -116 3 -16 7 -37 9
-45 3 -22 33 -132 41 -150 3 -8 7 -21 9 -28 1 -8 6 -21 10 -30 4 -9 8 -19 9
-22 0 -3 11 -26 22 -53 12 -26 22 -50 22 -52 1 -15 105 -157 138 -188 117
-110 212 -131 323 -72 25 13 41 24 37 25 -4 0 -3 8 2 18 15 28 0 39 -52 37
-50 -1 -79 8 -55 17 7 3 36 5 64 4 l51 -2 1 35 c2 37 5 44 28 47 67 10 56 53
-14 59 -26 2 -46 25 -33 38 4 4 30 10 57 13 92 9 112 18 127 57 7 18 57 25 57
7 0 -5 7 -10 15 -10 8 0 15 -4 15 -8 0 -5 9 -18 20 -30 12 -12 18 -22 14 -22
-3 0 -1 -7 6 -15 7 -8 10 -15 7 -15 -3 0 6 -28 20 -62 16 -39 27 -89 29 -133
8 -128 3 -125 161 -125 92 0 103 2 113 20 14 25 26 26 33 1 4 -18 16 -19 226
-20 121 -1 224 -1 228 -2 29 -5 43 3 43 25 0 20 -27 56 -37 49 -11 -8 -43 -1
-38 8 4 6 13 8 20 5 22 -8 46 17 51 54 6 36 33 90 45 90 4 0 14 3 22 6 8 3 26
-6 40 -20 15 -14 30 -26 35 -26 15 0 22 -27 22 -85 0 -30 5 -65 11 -79 11 -24
16 -25 88 -23 l76 2 1 35 c6 129 17 163 28 87 18 -127 18 -127 88 -127 l46 0
8 43 c4 23 8 44 9 47 14 62 19 78 27 93 17 33 65 -12 52 -48 -4 -8 -11 -15
-16 -15 -32 0 -52 -87 -25 -108 19 -15 233 -10 229 6 -3 16 25 15 31 -1 5 -14
66 -22 68 -9 0 4 2 50 3 102 3 125 -5 135 -110 136 -58 0 -74 -3 -74 -14 0
-10 -4 -12 -12 -4 -7 5 -34 8 -60 7 -45 -3 -48 -2 -48 20 0 24 23 38 70 44 6
0 10 10 10 21 0 11 19 40 43 64 43 42 43 42 115 41 59 0 74 -4 86 -20 9 -11
16 -23 16 -26 0 -11 128 -10 135 1 3 6 2 10 -4 10 -6 0 -8 6 -5 14 3 7 -2 20
-10 29 -9 8 -17 24 -19 34 -5 25 -15 51 -37 98 -37 81 -39 92 -26 111 11 15
18 16 59 6 25 -7 105 -12 176 -12 118 0 131 -2 130 -17 -1 -42 -12 -48 -89
-49 -154 -3 -140 3 -139 -53 1 -28 7 -51 13 -53 6 -2 66 -3 133 -3 102 0 123
-3 124 -15 4 -37 0 -102 -5 -108 -4 -3 -39 -7 -79 -8 -162 -4 -147 -1 -143
-31 8 -58 14 -63 77 -63 55 0 59 -2 59 -22 0 -28 -10 -42 -32 -51 -39 -14 31
-105 111 -143 39 -19 158 -25 169 -8 4 5 14 10 22 12 30 7 118 83 167 147 36
46 117 195 106 195 -4 0 -3 4 2 8 10 7 42 89 51 131 3 14 7 28 10 33 5 8 12
33 19 73 3 11 9 38 14 60 9 38 15 71 29 180 15 115 7 386 -14 475 -3 14 -7 35
-9 47 -4 29 -25 93 -38 118 -6 11 -12 29 -14 39 -2 11 -10 27 -18 36 -8 9 -12
20 -8 23 3 4 2 7 -4 7 -6 0 -16 14 -23 30 -7 17 -16 30 -21 30 -5 0 -9 4 -9
10 0 26 -170 167 -184 153 -3 -4 -6 -2 -6 4 0 6 -9 13 -19 16 -11 2 -29 24
-41 48 -39 75 -100 106 -205 104 -184 -5 -293 -55 -322 -149 -19 -61 -13 -71
43 -73 62 -2 93 -11 89 -26 -8 -41 -14 -43 -118 -45 -56 -2 -109 -5 -119 -8
-18 -5 -17 -41 1 -36 6 1 11 -1 11 -6 0 -4 46 -6 103 -5 56 2 109 0 117 -3 29
-10 -11 -21 -88 -23 -68 -2 -130 -6 -169 -10 -7 0 -13 -8 -13 -16 0 -14 -39
-36 -58 -34 -4 1 -24 1 -44 0 -31 -1 -38 -5 -38 -20 0 -27 -17 -35 -23 -11 -3
11 -1 23 4 26 11 6 2 63 -12 80 -5 6 -11 25 -13 43 -2 17 -6 34 -9 37 -5 5
-46 12 -80 13 -9 1 -25 10 -35 22 -22 27 -49 38 -151 59 -102 22 -279 22 -305
1 -9 -7 -16 -11 -16 -7 0 3 -17 -5 -38 -19 -33 -21 -52 -26 -138 -30 -54 -2
-110 -7 -124 -10 -25 -6 -51 -8 -81 -6 -9 0 -19 10 -22 22 -5 19 -12 20 -83
17 l-78 -3 -7 -33 c-9 -44 -14 -48 -44 -32 -17 9 -25 21 -23 34 3 20 -2 21
-164 24 -161 2 -168 2 -168 -17 0 -28 -6 -30 -108 -32 -93 -3 -127 5 -76 17
16 3 38 17 49 30 12 13 34 25 51 27 58 7 68 31 38 90 -30 58 -64 78 -174 103
-59 14 -215 13 -248 -1z m2029 -546 c29 -15 7 -36 -35 -34 -46 3 -60 13 -45
31 14 17 52 18 80 3z m166 -49 c-2 -17 -8 -35 -14 -41 -14 -14 -43 0 -43 21 0
11 -5 22 -10 25 -19 12 1 25 36 25 32 0 34 -2 31 -30z m-1939 -723 c-5 -33
-43 -30 -44 3 -1 36 5 41 27 29 13 -6 19 -18 17 -32z m1807 -579 c0 -72 -3
-92 -15 -95 -13 -4 -13 -3 0 6 14 10 8 25 -11 27 -5 1 -11 3 -14 4 -7 3 -22 7
-37 9 -7 1 -2 8 12 15 14 8 28 12 32 10 5 -3 8 15 8 40 0 24 3 51 6 60 14 36
20 11 19 -76z m-440 -8 c2 -34 0 -38 -9 -24 -7 9 -11 26 -10 38 1 11 3 25 3
30 2 24 14 -8 16 -44z"/>
</g>
</svg>
